<svg width="900" height="700" viewBox="0 0 900 700" fill="none" xmlns="http://www.w3.org/2000/svg">
<path d="M863.343 361.791C863.106 555.668 999.619 700.08 701.279 699.843C439.027 699.636 0.17638 554.985 0.413344 361.108C0.650308 167.231 439.881 1.22056 702.132 1.42816C1014.14 1.67516 863.58 167.914 863.343 361.791Z" fill="#CAE0F2"/>
<ellipse cx="326.037" cy="86.8766" rx="5.96632" ry="4.80161" fill="#E4F3FF"/>
<ellipse cx="319.529" cy="103.464" rx="5.96632" ry="4.80161" fill="#E4F3FF"/>
<ellipse cx="429.092" cy="80.7655" rx="5.96632" ry="4.80161" fill="#E4F3FF"/>
<path d="M365.089 98.6624C358.382 102.495 349.317 100.596 326.944 75.2397C304.571 49.883 298.169 33.9634 304.876 30.1303C311.583 26.2973 321.564 40.1309 343.936 65.4876C366.309 90.8443 371.797 94.8293 365.089 98.6624Z" fill="#FFFFF7"/>
<path d="M414.854 108.277C408.146 112.11 399.081 110.211 376.708 84.8541C354.335 59.4974 347.933 43.5778 354.64 39.7448C361.348 35.9117 371.328 49.7453 393.7 75.102C416.073 100.459 421.561 104.444 414.854 108.277Z" fill="#FFFFF7"/>
<path d="M417.167 71.5988C410.459 75.4318 401.394 73.5328 379.021 48.1761C356.649 22.8194 350.246 6.89979 356.954 3.06675C363.661 -0.766295 373.641 13.0673 396.014 38.424C418.386 63.7807 423.874 67.7657 417.167 71.5988Z" fill="#FFFFF7"/>
<ellipse cx="434.516" cy="57.194" rx="5.96632" ry="4.80161" fill="#E4F3FF"/>
<ellipse cx="449.703" cy="79.0195" rx="9.22067" ry="7.42067" fill="#E4F3FF"/>
</svg>
