<svg width="931" height="776" viewBox="0 0 931 776" fill="none" xmlns="http://www.w3.org/2000/svg">
<path d="M770.314 540.38C698.926 667.588 748.087 810.372 524.817 705.38C328.555 613.088 53.1341 363.905 124.522 236.698C195.91 109.49 585.721 154.842 781.983 247.133C1015.48 356.936 841.702 413.173 770.314 540.38Z" fill="#DFEBF5"/>
<ellipse cx="187.898" cy="230.438" rx="6.69702" ry="6.12844" fill="#E4F3FF"/>
<ellipse cx="180.593" cy="251.608" rx="6.69702" ry="6.12844" fill="#E4F3FF"/>
<ellipse cx="303.574" cy="222.639" rx="6.69702" ry="6.12844" fill="#E4F3FF"/>
<path d="M231.734 245.48C224.205 250.372 214.029 247.948 188.917 215.586C163.804 183.224 156.617 162.906 164.146 158.014C171.675 153.122 182.877 170.778 207.99 203.14C233.102 235.502 239.263 240.588 231.734 245.48Z" fill="#FFFFF7"/>
<path d="M287.592 257.751C280.064 262.643 269.888 260.219 244.775 227.857C219.663 195.495 212.476 175.177 220.005 170.285C227.534 165.393 238.736 183.048 263.849 215.41C288.961 247.773 295.121 252.859 287.592 257.751Z" fill="#FFFFF7"/>
<path d="M290.189 210.939C282.66 215.831 272.485 213.408 247.372 181.046C222.259 148.683 215.073 128.366 222.601 123.474C230.13 118.582 241.333 136.237 266.445 168.599C291.558 200.961 297.718 206.047 290.189 210.939Z" fill="#FFFFF7"/>
<ellipse cx="309.663" cy="192.555" rx="6.69702" ry="6.12844" fill="#E4F3FF"/>
<ellipse cx="326.71" cy="220.411" rx="10.3499" ry="9.47122" fill="#E4F3FF"/>
<path d="M348.032 362.31C368.22 382.537 370.719 414.318 353.937 437.384L340.749 455.509C332.233 467.213 317.162 472.211 303.276 467.937V467.937C299.181 466.676 295.363 464.656 292.024 461.982L183.529 375.114C162.431 358.221 158.324 327.861 174.187 306.059V306.059C190.016 284.303 220.198 278.677 242.908 293.248L338.219 354.402C341.767 356.678 345.057 359.33 348.032 362.31V362.31Z" fill="#4589B0"/>
<path d="M225.846 303.87C216.886 306.534 207.452 294.001 204.775 285.085C202.097 276.169 207.191 266.782 216.151 264.119C225.111 261.455 234.545 273.988 237.222 282.903C239.899 291.819 234.806 301.206 225.846 303.87Z" fill="#4589B0"/>
<ellipse rx="15.1698" ry="15.233" transform="matrix(0.287589 0.957754 -0.958536 0.284972 191.927 290.605)" fill="#4589B0"/>
<ellipse rx="13.4842" ry="13.5405" transform="matrix(0.287589 0.957754 -0.958536 0.284972 171.151 307.167)" fill="#4589B0"/>
<ellipse rx="11.7987" ry="11.8479" transform="matrix(0.287589 0.957754 -0.958536 0.284972 162.821 329.949)" fill="#4589B0"/>
<path d="M641.456 486.185C618.19 488.969 596.256 475.006 588.977 452.777L582.707 433.632C576.181 413.705 584.184 391.836 602.061 380.742V380.742C605.811 378.415 609.877 376.644 614.132 375.485L736.463 342.163C762.501 335.07 789.441 349.545 797.82 375.129V375.129C806.21 400.748 793.053 428.552 767.877 438.406L653.606 483.132C649.7 484.661 645.617 485.687 641.456 486.185V486.185Z" fill="#4589B0"/>
<path d="M740.743 352.069C735.455 344.364 744.492 331.542 752.16 326.258C759.827 320.974 770.328 322.937 775.615 330.643C780.903 338.349 771.865 351.171 764.198 356.455C756.531 361.738 746.03 359.775 740.743 352.069Z" fill="#4589B0"/>
<ellipse rx="15.1754" ry="15.2274" transform="matrix(-0.944756 -0.327775 0.330385 -0.943846 785.26 355.969)" fill="#4589B0"/>
<ellipse rx="13.4893" ry="13.5354" transform="matrix(-0.944756 -0.327775 0.330385 -0.943846 795.742 381.934)" fill="#4589B0"/>
<ellipse rx="11.8031" ry="11.8435" transform="matrix(-0.944756 -0.327775 0.330385 -0.943846 795.71 406.755)" fill="#4589B0"/>
<path d="M653.017 535.617C653.017 661.98 581.163 658.324 472.685 658.324C364.207 658.324 288.842 662.166 288.842 535.617C288.842 480.023 308.044 416.643 339.936 353.628C380.641 273.199 411.861 217.83 472.685 217.83C533.508 217.83 561.047 273.199 601.285 353.628C632.81 416.643 653.017 480.023 653.017 535.617Z" fill="#73B1D6"/>
<rect width="95.2857" height="100.121" rx="47.6429" transform="matrix(-0.681263 0.732039 -0.732351 -0.680928 398.253 605.948)" fill="#498AAF"/>
<rect width="95.2913" height="100.116" rx="47.6456" transform="matrix(-0.768445 -0.639915 0.640262 -0.768156 635.641 669.775)" fill="#498AAF"/>
<path d="M698.629 542.015C696.008 549.231 691.517 542.971 686.102 541.006C680.688 539.04 672.591 543.262 675.213 536.046C677.835 528.83 689.635 516.011 696.021 513.707C700.553 519.05 701.251 534.799 698.629 542.015Z" fill="#1D628B"/>
<path d="M720.119 563.993C717.498 571.209 713.007 564.95 707.592 562.984C702.178 561.019 694.081 565.241 696.703 558.025C699.325 550.809 711.125 537.99 717.511 535.686C722.043 541.028 722.741 556.777 720.119 563.993Z" fill="#1D628B"/>
<path d="M667.721 551.992C665.1 559.208 660.609 552.949 655.194 550.983C649.78 549.018 641.683 553.24 644.305 546.024C646.927 538.808 658.727 525.989 665.113 523.685C669.645 529.027 670.343 544.776 667.721 551.992Z" fill="#1D628B"/>
<path d="M715.042 635.469C696.686 674.604 664.061 685.429 634.419 671.539C604.776 657.648 589.34 624.301 607.696 585.166C629.579 549.633 663.076 528.986 694.604 539.458C723.287 558.039 728.318 592.698 715.042 635.469Z" fill="#4589B0"/>
<path d="M662.009 562.896C665.068 557.459 663.138 550.573 657.698 547.515C652.259 544.458 645.37 546.387 642.311 551.824C639.252 557.261 639.743 570.776 645.182 573.834C650.622 576.891 658.95 568.333 662.009 562.896Z" fill="#7CB0CD"/>
<path d="M691.756 559.878C695.207 554.681 693.789 547.671 688.59 544.222C683.39 540.773 676.378 542.19 672.927 547.387C669.476 552.584 667.303 571.464 672.503 574.913C677.703 578.362 688.305 565.075 691.756 559.878Z" fill="#7CB0CD"/>
<path d="M713.606 581.036C715.721 575.167 712.675 568.696 706.804 566.583C700.933 564.469 694.459 567.513 692.344 573.382C690.23 579.25 690.276 590.349 696.147 592.463C702.019 594.577 711.491 586.905 713.606 581.036Z" fill="#7CB0CD"/>
<path d="M681.964 641.361C671.894 662.388 651.446 673.555 636.291 666.304C621.137 659.052 617.015 636.129 627.085 615.103C633.155 602.428 640.59 587.434 650.769 583.799C657.477 581.404 662.088 596.045 668.107 598.925C673.521 601.515 687.079 595.146 689.533 600.935C693.948 611.352 688.437 627.846 681.964 641.361Z" fill="#7CB0CD"/>
<path d="M264.43 539.445C268.505 545.952 260.806 545.636 255.923 548.69C251.04 551.745 249.383 560.722 245.308 554.214C241.234 547.706 238.392 530.519 240.508 524.072C247.509 523.791 260.356 532.937 264.43 539.445Z" fill="#1D628B"/>
<path d="M294.988 536.049C299.063 542.557 291.364 542.24 286.481 545.295C281.598 548.35 279.941 557.326 275.866 550.819C271.792 544.311 268.951 527.124 271.066 520.676C278.068 520.396 290.914 529.542 294.988 536.049Z" fill="#1D628B"/>
<path d="M253.268 569.932C257.342 576.44 249.643 576.123 244.76 579.178C239.877 582.232 238.22 591.209 234.146 584.701C230.071 578.194 227.23 561.007 229.345 554.559C236.347 554.278 249.193 563.424 253.268 569.932Z" fill="#1D628B"/>
<path d="M348.238 584.069C367.799 622.616 356.25 654.971 327.046 669.761C297.842 684.55 262.042 676.175 242.481 637.627C227.932 598.52 232.274 559.432 259.942 541.052C292.254 529.906 322.683 547.283 348.238 584.069Z" fill="#4589B0"/>
<path d="M258.347 581.145C255.944 575.388 249.327 572.669 243.567 575.071C237.808 577.473 235.088 584.087 237.491 589.843C239.894 595.6 250.851 603.534 256.611 601.132C262.37 598.73 260.75 586.901 258.347 581.145Z" fill="#7CB0CD"/>
<path d="M274.282 555.856C272.309 549.938 265.91 546.74 259.99 548.711C254.069 550.683 250.869 557.079 252.842 562.997C254.815 568.915 268.361 582.249 274.281 580.277C280.202 578.305 276.255 561.774 274.282 555.856Z" fill="#7CB0CD"/>
<path d="M304.414 551.672C301.089 546.393 294.113 544.808 288.832 548.132C283.551 551.455 281.965 558.428 285.29 563.707C288.615 568.985 297.393 575.782 302.674 572.459C307.956 569.135 307.739 556.951 304.414 551.672Z" fill="#7CB0CD"/>
<path d="M332.492 613.735C342.869 634.612 339.084 657.593 324.037 665.065C308.991 672.537 288.381 661.671 278.004 640.794C271.749 628.209 264.505 613.123 267.907 602.867C270.148 596.109 284.529 601.491 290.506 598.523C295.881 595.853 299.207 581.253 305.282 582.885C316.212 585.82 325.823 600.316 332.492 613.735Z" fill="#7CB0CD"/>
<path d="M559.473 538.967C559.473 598.066 527.997 645.975 478.284 645.975C428.57 645.975 396.506 598.066 396.506 538.967C396.506 485.435 426.551 422.655 477.249 414.28C520.704 423.585 553.001 479.554 559.473 538.967Z" fill="#5697BE"/>
<path fill-rule="evenodd" clip-rule="evenodd" d="M440.534 358.811C442.429 377.141 457.586 391.423 476.004 391.423C494.421 391.423 509.578 377.141 511.473 358.811H440.534Z" fill="#444444"/>
<path fill-rule="evenodd" clip-rule="evenodd" d="M505.631 358.811C505.631 358.832 505.631 358.853 505.631 358.875C505.631 367.368 499.687 374.253 495.725 374.253C493.487 374.253 493.145 372.291 492.557 368.921C492.178 366.747 491.697 363.987 490.539 360.79C490.305 360.145 490.114 359.483 489.982 358.811H505.631Z" fill="#FFFFF7"/>
<path fill-rule="evenodd" clip-rule="evenodd" d="M447.464 359.003C447.523 367.437 453.43 374.253 457.374 374.253C459.613 374.253 459.955 372.291 460.543 368.921C460.922 366.747 461.403 363.987 462.562 360.79C462.774 360.207 462.95 359.609 463.08 359.003H447.464Z" fill="#FFFFF7"/>
<path d="M423.986 365.07C419.032 374.755 406.334 378.169 395.624 372.696C384.915 367.222 380.25 354.933 385.205 345.248C390.159 335.563 401.823 339.775 412.532 345.248C423.241 350.722 428.941 355.385 423.986 365.07Z" fill="#1D628B"/>
<path d="M562.959 343.176C567.913 352.861 563.247 365.149 552.538 370.622C541.828 376.095 529.13 372.681 524.176 362.996C519.222 353.311 525.238 348.649 535.948 343.176C546.657 337.702 558.005 333.49 562.959 343.176Z" fill="#1D628B"/>
<ellipse cx="437.424" cy="322.529" rx="30.0759" ry="30.0621" fill="#FFFFF7"/>
<ellipse cx="445.72" cy="323.566" rx="21.7791" ry="22.8057" fill="#444444"/>
<ellipse cx="512.094" cy="322.529" rx="30.0759" ry="30.0621" fill="#FFFFF7"/>
<ellipse cx="520.391" cy="323.566" rx="21.7791" ry="22.8057" fill="#444444"/>
<ellipse cx="443.646" cy="312.163" rx="3.1113" ry="3.10987" fill="#FFFFF7"/>
<ellipse cx="516.243" cy="312.163" rx="3.1113" ry="3.10987" fill="#FFFFF7"/>
<ellipse cx="523.503" cy="315.273" rx="2.0742" ry="2.07325" fill="#FFFFF7"/>
<ellipse cx="450.905" cy="315.273" rx="2.0742" ry="2.07325" fill="#FFFFF7"/>
<path d="M500.686 240.57C500.686 257.344 489.542 248.853 475.796 248.853C462.049 248.853 450.905 257.344 450.905 240.57C450.905 223.795 462.049 182.585 475.796 182.585C489.542 182.585 500.686 223.795 500.686 240.57Z" fill="#1D628B"/>
<path d="M496.538 259.685C496.538 272.393 486.106 265.96 475.796 265.96C465.486 265.96 455.054 272.393 455.054 259.685C455.054 246.977 465.486 215.757 475.796 215.757C486.106 215.757 496.538 246.977 496.538 259.685Z" fill="#2574A4"/>
<path d="M404.236 284.486C402.026 290.384 391.502 298.551 388.284 297.346C385.066 296.141 382.321 294.218 384.531 288.321C386.741 282.423 393.069 274.785 396.287 275.989C399.505 277.194 406.446 278.589 404.236 284.486Z" fill="#B1D0E3"/>
<path d="M402.162 313.199C399.952 319.097 391.502 329.65 388.284 328.445C385.066 327.24 386.074 322.207 388.284 316.309C390.494 310.412 393.069 305.883 396.287 307.088C399.505 308.293 404.372 307.302 402.162 313.199Z" fill="#B1D0E3"/>
<path d="M379.346 324.095C377.136 329.992 370.761 333.796 367.543 332.591C364.324 331.387 356.394 328.427 358.604 322.529C360.814 316.632 370.253 308.464 373.471 309.669C376.69 310.874 381.556 318.197 379.346 324.095Z" fill="#B1D0E3"/>
<path d="M336.61 502.683C333.653 510.574 325.123 515.664 320.817 514.051C316.511 512.439 305.9 508.479 308.857 500.588C311.814 492.697 324.444 481.769 328.75 483.381C333.056 484.993 339.567 494.792 336.61 502.683Z" fill="#B1D0E3"/>
<path d="M320.363 471.457C317.406 479.348 308.877 484.438 304.57 482.826C300.264 481.214 299.145 476.364 302.102 468.473C305.059 460.582 308.197 450.543 312.503 452.155C316.809 453.767 323.32 463.566 320.363 471.457Z" fill="#B1D0E3"/>
<path d="M358.453 457.139C355.496 465.03 340.624 477.361 336.318 475.749C332.012 474.137 330.893 469.287 333.85 461.396C336.807 453.505 343.776 436.867 348.082 438.48C352.388 440.092 361.41 449.248 358.453 457.139Z" fill="#B1D0E3"/>
<path d="M583.346 352.364C586.229 357.964 586.089 363.777 583.033 365.349C579.978 366.921 569.943 366.484 567.061 360.884C564.178 355.284 569.538 346.643 572.594 345.071C575.649 343.499 580.464 346.764 583.346 352.364Z" fill="#B1D0E3"/>
<path d="M604.088 368.95C606.971 374.55 607.144 391.448 604.088 393.019C601.032 394.591 592.486 384.388 589.603 378.788C586.72 373.189 590.279 363.228 593.335 361.657C596.391 360.085 601.205 363.35 604.088 368.95Z" fill="#B1D0E3"/>
<path d="M585.421 329.558C588.304 335.158 588.163 340.972 585.108 342.543C582.052 344.115 577.238 340.85 574.355 335.25C571.472 329.65 568.153 318.918 571.209 317.346C574.265 315.774 582.538 323.959 585.421 329.558Z" fill="#B1D0E3"/>
<rect x="0.127285" y="0.329782" width="146.757" height="190.253" rx="4.75" transform="matrix(0.914357 0.404908 -0.405219 0.91422 706.727 255.125)" fill="#FFFFF7" stroke="#E7E7E2" stroke-width="0.5"/>
<line y1="-0.5" x2="139.886" y2="-0.5" transform="matrix(0.914357 0.404908 -0.405219 0.91422 689.371 304.217)" stroke="#EDEDE7"/>
<line y1="-0.5" x2="139.886" y2="-0.5" transform="matrix(0.914357 0.404908 -0.405219 0.91422 664.166 361.083)" stroke="#EDEDE7"/>
<line y1="-0.5" x2="139.886" y2="-0.5" transform="matrix(0.914357 0.404908 -0.405219 0.91422 655.764 380.039)" stroke="#EDEDE7"/>
<line y1="-0.5" x2="139.886" y2="-0.5" transform="matrix(0.914357 0.404908 -0.405219 0.91422 647.361 398.994)" stroke="#EDEDE7"/>
<path d="M680.969 323.172L808.875 379.813" stroke="#EDEDE7"/>
<line y1="-0.5" x2="139.886" y2="-0.5" transform="matrix(0.914357 0.404908 -0.405219 0.91422 672.567 342.128)" stroke="#EDEDE7"/>
<line y1="-0.5" x2="174.166" y2="-0.5" transform="matrix(0.405219 -0.91422 0.914357 0.404908 644.025 426.995)" stroke="#FCB4B4"/>
<rect width="42.353" height="149.39" transform="matrix(0.810567 0.585646 -0.585999 0.810311 252.347 204.565)" fill="#F9F3D7"/>
<path d="M290.191 188.372L286.855 229.498L252.169 204.437L290.191 188.372Z" fill="#F9F3D7"/>
<path d="M252.546 203.894L279.609 192.721" stroke="#DED9C1" stroke-width="2"/>
<path d="M283.727 232.709L286.081 228.005L289.022 199.19" stroke="#DED9C1" stroke-width="2"/>
<path d="M282.08 195.573L279.909 192.553L290.191 188.372L289.445 199.443L285.895 198.329L282.08 195.573Z" fill="#DAA86E" stroke="#B48E62" stroke-width="2"/>
<path d="M254.358 211.823L252.347 204.565L164.804 325.618L199.134 350.422L283.92 233.182L280.955 225.235L273.43 225.603L271.419 218.345L263.894 218.713L261.883 211.455L254.358 211.823Z" fill="#DAA86E" stroke="#B48E62" stroke-width="2"/>
<line y1="-0.5" x2="144.948" y2="-0.5" transform="matrix(-0.584481 0.811406 -0.811662 -0.584128 253.723 211.539)" stroke="#B48E62"/>
<line y1="-0.5" x2="144.948" y2="-0.5" transform="matrix(-0.584481 0.811406 -0.811662 -0.584128 263.136 217.42)" stroke="#B48E62"/>
<line y1="-0.5" x2="144.948" y2="-0.5" transform="matrix(-0.584481 0.811406 -0.811662 -0.584128 272.549 225.653)" stroke="#B48E62"/>
</svg>
