<svg width="600" height="550" viewBox="0 0 600 550" fill="none" xmlns="http://www.w3.org/2000/svg">
<path d="M392.92 224.776C379.258 232.829 390.279 212.995 384.807 203.783C379.335 194.572 349.305 184.758 362.967 176.705C376.629 168.653 424.371 168.086 431.86 176.705C431.86 190.464 406.582 216.724 392.92 224.776Z" fill="#1D628B"/>
<path d="M422.874 287.434C408.124 293.28 411.946 269.034 407.973 259.089C404 249.144 381.972 236.631 396.722 230.785C411.472 224.939 461.642 226.808 465.615 236.753C465.91 248.555 437.624 281.588 422.874 287.434Z" fill="#1D628B"/>
<path d="M469.301 353.076C464.269 368.073 455.663 340.819 445.472 337.427C435.281 334.034 423.907 331.826 428.939 316.828C433.971 301.831 452.201 283.603 462.393 286.996C471.635 294.385 474.333 338.078 469.301 353.076Z" fill="#1D628B"/>
<path d="M541.189 400.815C542.687 419.967 522.925 394.007 512.734 390.614C502.543 387.221 477.615 382.472 482.647 367.475C487.679 352.477 520.515 333.272 530.706 336.665C539.692 345.616 544.185 384.404 541.189 400.815Z" fill="#1D628B"/>
<path d="M285.088 45.3459C283.875 55.7159 276.424 46.3208 268.025 45.3459C259.626 44.3711 250.53 44.3103 251.743 33.9404C252.892 24.1157 257.597 14.0516 265.73 9.21431C266.526 8.74107 267.533 8.95287 268.114 9.67204C275.596 18.9218 286.248 35.4264 285.088 45.3459Z" fill="#1D628B"/>
<path d="M321.032 75.5914C316.031 86.6461 313.666 77.5344 305.822 74.3876C298.029 71.2611 285.824 68.8958 289.508 59.3672C289.554 59.2475 289.58 59.1147 289.585 58.9865C289.875 50.3973 309.355 43.1985 320.033 38.7177C320.572 38.4915 321.192 38.7694 321.369 39.325C325.522 52.3338 325.41 63.9626 321.032 75.5914Z" fill="#1D628B"/>
<path d="M349.488 121.839C341.342 131.21 341.973 115.462 334.78 109.257C327.586 103.052 312.886 96.897 321.032 87.5262C329.178 78.1553 353.981 72.6077 364.465 77.0833C367.46 89.0181 357.634 112.468 349.488 121.839Z" fill="#1D628B"/>
<path d="M373.451 168.086C365.304 177.457 362.6 169.411 355.407 163.206C348.213 157.001 336.848 150.604 344.995 141.233C353.141 131.862 379.441 127.806 388.427 130.79C391.422 142.725 381.597 158.715 373.451 168.086Z" fill="#1D628B"/>
<rect width="41.8203" height="103.075" rx="20.9102" transform="matrix(0.546998 0.837134 -0.839075 0.544016 109.331 170.782)" fill="#4589B0"/>
<path d="M431.859 303.845C431.859 415.733 340.599 473.916 244.651 473.916C148.703 473.916 55.9447 415.899 55.9447 303.845C55.9447 254.619 86.1454 191.062 114.354 135.265C150.357 64.0493 165.392 23.3766 219.19 23.3766C272.988 23.3766 321.386 64.0493 356.976 135.265C384.86 191.062 431.859 254.619 431.859 303.845Z" fill="#73B1D6"/>
<path d="M106.866 490.326L70.9219 360.535L151.796 415.733L199.721 424.685L241.656 409.766L204.214 490.326L201.475 491.734C173.922 505.9 141.359 506.495 113.307 493.345L106.866 490.326Z" fill="#73B1D6"/>
<path d="M364.465 526.13L400.409 396.339L319.535 451.538L271.61 460.489L229.675 445.57L267.117 526.13L269.856 527.539C297.409 541.704 329.972 542.299 358.024 529.15L364.465 526.13Z" fill="#73B1D6"/>
<g filter="url(#filter0_f_8_22)">
<path d="M232.158 473.916H240.158C242.331 473.916 243.834 471.744 243.068 469.711L241.213 464.784C240.578 463.097 238.965 461.981 237.163 461.981H223.684H215.924C215.11 461.981 214.298 461.881 213.508 461.684L202.716 458.997L178.754 453.03C180.274 453.408 181.737 453.988 183.104 454.752L212.423 471.151C213.914 471.986 215.595 472.424 217.304 472.424H222.697C223.353 472.424 224.008 472.488 224.651 472.616L230.205 473.723C230.848 473.851 231.502 473.916 232.158 473.916Z" fill="#1D628B" fill-opacity="0.28"/>
</g>
<path d="M165.275 302.353C165.275 357.556 190.872 402.307 157.787 402.307C124.701 402.307 71.3021 342.637 71.3021 287.434C71.3021 232.231 116.095 171.07 149.181 171.07C182.266 171.07 165.275 247.15 165.275 302.353Z" fill="#4589B0" fill-opacity="0.64"/>
<path d="M139.971 146.643C136.346 153.119 128.136 155.442 121.634 151.831C115.132 148.22 112.8 140.043 116.425 133.566C120.05 127.089 127.322 129.955 133.824 133.566C140.326 137.177 143.596 140.166 139.971 146.643Z" fill="#1D628B"/>
<path d="M256.789 146.643C253.164 153.119 244.954 155.442 238.452 151.831C231.95 148.22 232.04 143.234 235.665 136.757C239.291 130.281 245.078 124.766 251.58 128.377C258.082 131.988 260.414 140.166 256.789 146.643Z" fill="#1D628B"/>
<path fill-rule="evenodd" clip-rule="evenodd" d="M149.601 140.001C160.631 141.104 171.284 134.826 174.974 124.231C177.188 117.872 176.466 111.188 173.515 105.575C171.888 104.255 170.02 103.199 167.944 102.482C157.714 98.947 146.319 104.99 142.492 115.98C139.274 125.221 142.432 135.016 149.601 140.001Z" fill="#444444"/>
<path fill-rule="evenodd" clip-rule="evenodd" d="M174.887 106.049C173.26 104.729 171.392 103.673 169.316 102.956C159.086 99.421 147.691 105.464 143.864 116.454C140.646 125.695 143.804 135.49 150.973 140.476C149.038 140.282 147.091 139.861 145.167 139.197C132.285 134.746 125.358 121.041 129.695 108.586C134.032 96.131 147.991 89.6428 160.873 94.094C167.179 96.2727 172.057 100.668 174.887 106.049Z" fill="#F5F5F5"/>
<path fill-rule="evenodd" clip-rule="evenodd" d="M199.524 104.322C192.692 113.017 192.321 125.342 199.337 134.113C203.547 139.376 209.604 142.343 215.943 142.86C217.933 142.196 219.828 141.188 221.546 139.824C230.014 133.103 230.98 120.28 223.704 111.182C217.585 103.533 207.586 100.954 199.524 104.322Z" fill="#444444"/>
<path fill-rule="evenodd" clip-rule="evenodd" d="M214.807 143.761C216.797 143.097 218.691 142.089 220.409 140.726C228.878 134.004 229.844 121.181 222.567 112.084C216.449 104.434 206.45 101.855 198.388 105.224C199.587 103.698 200.985 102.284 202.577 101.021C213.241 92.5567 228.572 94.0535 236.818 104.364C245.065 114.674 243.106 129.893 232.442 138.357C227.222 142.5 220.884 144.257 214.807 143.761Z" fill="#F5F5F5"/>
<path fill-rule="evenodd" clip-rule="evenodd" d="M157.786 145.708C160.214 157.625 170.791 166.594 183.471 166.594C196.151 166.594 206.727 157.625 209.156 145.708H157.786Z" fill="#444444"/>
<path fill-rule="evenodd" clip-rule="evenodd" d="M160.782 145.708C160.782 145.725 160.781 145.741 160.781 145.758C160.781 152.322 165.375 157.643 168.437 157.643C170.166 157.643 170.431 156.127 170.885 153.522C171.16 151.942 171.506 149.962 172.29 147.676C172.511 147.033 172.697 146.375 172.828 145.708H160.782Z" fill="#D9D9D9"/>
<path fill-rule="evenodd" clip-rule="evenodd" d="M206.149 145.708C206.149 145.725 206.149 145.741 206.149 145.758C206.149 152.322 201.561 157.643 198.502 157.643C196.774 157.643 196.51 156.127 196.056 153.523C195.781 151.942 195.436 149.961 194.652 147.675C194.431 147.032 194.246 146.375 194.115 145.708H206.149Z" fill="#D9D9D9"/>
<path fill-rule="evenodd" clip-rule="evenodd" d="M173.801 209.736C171.702 210.45 169.452 210.838 167.111 210.838C155.685 210.838 146.423 201.612 146.423 190.23C146.423 186.176 147.598 182.395 149.628 179.207C148.566 179.159 147.497 179.134 146.423 179.134C108.631 179.134 77.9941 209.652 77.9941 247.297C77.9941 284.943 108.631 315.46 146.423 315.46C184.215 315.46 214.852 284.943 214.852 247.297C214.852 237.669 212.848 228.507 209.232 220.202C205.459 224.196 200.104 226.69 194.164 226.69C183.99 226.69 175.532 219.375 173.801 209.736Z" fill="url(#paint0_linear_8_22)"/>
<path d="M125.735 185.475C125.735 188.703 127.087 193.387 123.561 195.963C122.936 196.419 122.151 196.576 121.378 196.554C117.579 196.447 111.413 195.757 111.413 192.608C111.413 189.106 115.854 187.06 119.37 187.06C122.885 187.06 125.735 181.973 125.735 185.475Z" fill="#A57640"/>
<path d="M111.413 217.971C112.456 219.898 112.485 225.99 108.23 228.275C103.975 230.56 95.7461 228.616 94.7035 226.69C93.6609 224.763 98.1089 224.694 102.364 222.409C106.619 220.124 110.37 216.045 111.413 217.971Z" fill="#A57640"/>
<path d="M136.079 223.519C134.892 225.361 131.618 225.814 130.509 225.104C129.4 224.395 131.471 220.77 132.658 218.928C133.846 217.086 134.174 214.091 135.283 214.801C136.393 215.51 137.266 221.678 136.079 223.519Z" fill="#A57640"/>
<path d="M136.079 253.638C137.071 255.084 136.341 260.875 132.713 263.345C129.085 265.815 124.34 264.595 123.348 263.149C122.356 261.703 125.494 260.58 129.122 258.11C132.75 255.64 135.087 252.192 136.079 253.638Z" fill="#9C6F3A"/>
<path d="M168.702 239.371C169.694 240.817 168.169 246.608 164.541 249.078C160.913 251.548 153.78 250.524 152.788 249.078C151.797 247.633 157.321 246.313 160.949 243.843C164.577 241.373 167.71 237.926 168.702 239.371Z" fill="#9C6F3A"/>
<path d="M172.498 273.453C173.489 274.898 177.104 280.494 173.476 282.964C169.848 285.434 160.146 282.032 159.154 280.586C158.162 279.14 165.278 281.187 168.906 278.717C172.534 276.248 171.506 272.007 172.498 273.453Z" fill="#916736"/>
<path d="M204.508 245.712C205.5 247.158 206.362 251.364 202.734 253.834C199.106 256.304 193.565 253.498 192.573 252.053C191.581 250.607 195.514 251.069 199.142 248.599C202.77 246.129 203.516 244.266 204.508 245.712Z" fill="#906736"/>
<path d="M135.284 290.097C136.275 291.543 138.912 297.931 135.284 300.401C131.656 302.871 123.544 300.261 122.553 298.816C121.561 297.37 127.085 298.625 130.713 296.155C134.341 293.685 134.292 288.652 135.284 290.097Z" fill="#926837"/>
<path d="M95.4996 272.66C96.4914 274.106 100.719 282.079 97.0909 284.549C93.4628 287.019 87.7389 284.409 86.7471 282.964C85.7552 281.518 90.4838 282.773 94.1118 280.303C97.7399 277.833 94.5078 271.215 95.4996 272.66Z" fill="#9C6F3A"/>
<path d="M167.941 234.835C169.106 236.136 169.575 237.975 168.804 239.541C166.531 244.162 159.222 249.675 155.175 249.675C150.341 249.675 146.423 243.394 146.423 238.579C146.423 233.763 150.341 229.86 155.175 229.86C159.313 229.86 164.529 231.021 167.941 234.835Z" fill="#5C4529"/>
<path d="M136.079 291.682C136.079 296.06 131.721 301.194 127.326 301.194C122.932 301.194 116.982 296.06 116.982 291.682C116.982 287.305 120.545 283.756 124.939 283.756C129.334 283.756 136.079 287.305 136.079 291.682Z" fill="#5C4529"/>
<path d="M173.476 275.831C173.476 279.332 169.035 282.964 165.519 282.964C162.004 282.964 156.767 280.125 156.767 276.623C156.767 273.121 163.595 269.49 167.111 269.49C170.626 269.49 173.476 272.329 173.476 275.831Z" fill="#5C4529"/>
<path d="M204.508 246.098C204.508 249.162 198.036 253.638 194.96 253.638C191.884 253.638 190.855 249.162 190.855 246.098C190.855 243.034 194.271 244.127 197.347 244.127C200.423 244.127 204.508 243.034 204.508 246.098Z" fill="#5C4529"/>
<path d="M136.075 252.829C137.942 256.302 130.968 261.847 127.481 263.707C123.995 265.567 119.981 263.186 118.114 259.713C116.247 256.24 118.587 250.47 122.073 248.61C125.56 246.75 134.208 249.356 136.075 252.829Z" fill="#5C4529"/>
<path d="M210.873 273.453C210.873 277.83 204.128 290.097 199.734 290.097C195.339 290.097 194.164 284.964 194.164 280.586C194.164 276.209 197.726 272.66 202.121 272.66C206.515 272.66 210.873 269.075 210.873 273.453Z" fill="#5C4529"/>
<path d="M172.68 311.497C170.388 315.232 160.516 317.744 156.767 315.46C153.018 313.176 154.847 308.719 157.14 304.984C159.433 301.25 164.33 300.074 168.079 302.358C171.828 304.642 174.973 307.763 172.68 311.497Z" fill="#5C4529"/>
<path d="M125.735 187.06C125.735 191.437 122.173 194.986 117.779 194.986C113.384 194.986 109.822 193.815 109.822 189.438C109.822 185.06 117.363 182.304 121.757 182.304C126.151 182.304 125.735 182.683 125.735 187.06Z" fill="#5C4529"/>
<path d="M97.0907 275.831C97.0907 280.208 93.5283 285.342 89.1338 285.342C84.7394 285.342 81.9727 277.038 81.9727 272.66C81.9727 268.283 84.7394 267.905 89.1338 267.905C93.5283 267.905 97.0907 271.453 97.0907 275.831Z" fill="#5C4529"/>
<path d="M111.413 217.971C111.413 222.349 106.259 228.275 101.864 228.275C97.4699 228.275 93.1118 227.897 93.1118 223.519C93.1118 219.142 97.4699 212.423 101.864 212.423C106.259 212.423 111.413 213.594 111.413 217.971Z" fill="#5C4529"/>
<path d="M136.079 217.971C136.079 221.035 133.586 225.105 130.509 225.105C127.433 225.105 127.327 221.035 127.327 217.971C127.327 214.907 129.82 212.423 132.896 212.423C135.973 212.423 136.079 214.907 136.079 217.971Z" fill="#5C4529"/>
<rect width="85.0625" height="196.954" rx="42.5313" transform="matrix(0.609713 0.792622 -0.794907 0.606731 326.258 163.611)" fill="#4589B0"/>
<ellipse cx="190.735" cy="268.04" rx="14.9767" ry="14.9185" fill="#4589B0"/>
<ellipse cx="189.237" cy="293.402" rx="13.479" ry="13.4267" fill="#4589B0"/>
<ellipse cx="196.726" cy="315.779" rx="11.9813" ry="11.9348" fill="#4589B0"/>
<ellipse cx="213.2" cy="329.206" rx="10.4837" ry="10.443" fill="#4589B0"/>
<path d="M23.3306 277.29C10.4455 263.414 11.2894 241.763 25.2156 228.932L35.5656 219.396C48.6632 207.328 69.8765 212.444 75.9896 229.145C77.9295 234.445 81.6194 238.931 86.4542 241.868L93.0699 245.887C114.047 258.63 116.974 287.817 98.9425 304.432C83.9388 318.256 60.5224 317.343 46.6404 302.393L23.3306 277.29Z" fill="#4589B0"/>
<path d="M116.151 259.089C116.151 267.328 109.446 274.008 101.174 274.008C92.903 274.008 86.1977 267.328 86.1977 259.089C86.1977 250.85 92.903 244.171 101.174 244.171C109.446 244.171 116.151 250.85 116.151 259.089Z" fill="#4589B0"/>
<path d="M121.843 284.451C121.843 291.866 115.808 297.877 108.364 297.877C100.92 297.877 94.8848 291.866 94.8848 284.451C94.8848 277.035 100.92 271.024 108.364 271.024C115.808 271.024 121.843 277.035 121.843 284.451Z" fill="#4589B0"/>
<ellipse cx="94.8848" cy="303.845" rx="11.9813" ry="11.9348" fill="#4589B0"/>
<ellipse cx="75.4149" cy="311.304" rx="10.4837" ry="10.443" fill="#4589B0"/>
<path d="M600 405.976C525.324 445.684 418.381 454.522 380.939 408.274C376.612 404.431 384.3 404.359 384.496 400.939C384.59 399.286 382.84 398.173 381.394 397.357C321.145 363.338 386.365 295.578 409.549 267.701C433.018 239.481 418.381 302.508 469.243 344.48C527.291 392.38 552.747 389.761 600 405.976Z" fill="#73B1D6"/>
<path d="M192.883 46.4362C198.633 53.3918 194.904 55.3454 189.135 60.0776C183.365 64.8097 177.74 70.5283 171.991 63.5727C166.241 56.6171 164.031 41.4203 169.8 36.6882C177.256 33.5913 187.133 39.4806 192.883 46.4362Z" fill="#1D628B"/>
<path d="M239.525 29.3185C239.978 30.3115 240.543 31.2577 241.153 32.1632C246.219 39.6799 235.982 40.1337 228.483 42.9358C220.759 45.8221 210.709 50.0192 208.888 40.9166C208.795 40.4516 208.767 39.9751 208.767 39.5011C208.769 29.4036 208.843 15.0797 212.03 8.55848C213.197 6.17165 216.153 5.88827 218.49 7.16543C226.455 11.5173 235.795 21.1456 239.525 29.3185Z" fill="#1D628B"/>
<path d="M115.852 485.85C115.852 490.794 111.829 494.802 106.866 494.802C101.903 494.802 93.3867 496.761 93.3867 491.818C93.3867 486.874 101.903 476.899 106.866 476.899C111.829 476.899 115.852 480.907 115.852 485.85Z" fill="#1D628B"/>
<path d="M279.098 522.848C279.098 528.451 274.538 532.993 268.913 532.993C263.289 532.993 253.637 535.214 253.637 529.611C253.637 524.009 263.289 512.704 268.913 512.704C274.538 512.704 279.098 517.246 279.098 522.848Z" fill="#1D628B"/>
<path d="M300.065 532.993C300.065 538.595 295.505 543.137 289.881 543.137C284.256 543.137 274.605 545.359 274.605 539.756C274.605 534.153 284.256 522.848 289.881 522.848C295.505 522.848 300.065 527.39 300.065 532.993Z" fill="#1D628B"/>
<path d="M328.221 532.993C328.221 538.596 323.662 543.137 318.037 543.137C312.413 543.137 302.761 545.359 302.761 539.756C302.761 534.153 312.413 522.848 318.037 522.848C323.662 522.848 328.221 527.39 328.221 532.993Z" fill="#1D628B"/>
<path d="M132.327 494.802C132.327 499.745 128.303 503.753 123.341 503.753C118.378 503.753 109.862 505.712 109.862 500.769C109.862 495.825 118.378 485.85 123.341 485.85C128.303 485.85 132.327 489.858 132.327 494.802Z" fill="#1D628B"/>
<path d="M154.791 499.277C154.791 504.221 146.275 509.72 141.312 509.72C136.349 509.72 127.833 511.68 127.833 506.736C127.833 501.793 136.349 491.818 141.312 491.818C146.275 491.818 154.791 494.334 154.791 499.277Z" fill="#1D628B"/>
<ellipse cx="163.777" cy="106.92" rx="2.99533" ry="2.9837" fill="white"/>
<ellipse cx="202.717" cy="109.904" rx="2.99533" ry="2.9837" fill="white"/>
<ellipse cx="156.289" cy="111.396" rx="1.49767" ry="1.49185" fill="white"/>
<ellipse cx="213.2" cy="114.38" rx="1.49767" ry="1.49185" fill="white"/>
<path d="M290.463 56.1973C294.593 63.3357 296.913 74.8721 290.463 78.5751C284.013 82.2781 272.744 75.2705 268.614 68.1322C264.483 60.9938 257.671 52.4411 264.121 48.7381C270.57 45.035 286.332 49.059 290.463 56.1973Z" fill="#B1D0E3"/>
<path d="M429.263 307.307C430.746 313.791 429.839 323.225 424.094 324.529C418.348 325.833 411.422 317.738 409.94 311.255C408.457 304.771 405.268 296.556 411.013 295.252C416.759 293.948 427.78 300.823 429.263 307.307Z" fill="#B1D0E3"/>
<path d="M267.586 101.929C266.603 105.648 263.081 107.948 259.721 107.066C256.361 106.184 254.435 102.454 255.418 98.7355C256.402 95.0166 260.761 89.6281 264.121 90.5099C267.481 91.3917 268.57 98.2099 267.586 101.929Z" fill="#B1D0E3"/>
<path d="M315.244 94.6667C315.709 101.337 310.584 112.47 304.558 112.888C298.531 113.305 297.535 104.639 297.07 97.9692C296.604 91.299 298.531 87.9435 304.558 87.5262C310.585 87.1089 314.778 87.9965 315.244 94.6667Z" fill="#B1D0E3"/>
<path d="M388.427 296.385C388.427 303.801 388.383 311.304 380.939 311.304C373.495 311.304 361.469 303.801 361.469 296.385C361.469 288.97 363.011 279.975 370.455 279.975C377.899 279.975 388.427 288.97 388.427 296.385Z" fill="#B1D0E3"/>
<defs>
<filter id="filter0_f_8_22" x="178.254" y="452.53" width="65.5166" height="21.8859" filterUnits="userSpaceOnUse" color-interpolation-filters="sRGB">
<feFlood flood-opacity="0" result="BackgroundImageFix"/>
<feBlend mode="normal" in="SourceGraphic" in2="BackgroundImageFix" result="shape"/>
<feGaussianBlur stdDeviation="0.25" result="effect1_foregroundBlur_8_22"/>
</filter>
<linearGradient id="paint0_linear_8_22" x1="101.865" y1="189.438" x2="182.567" y2="321.289" gradientUnits="userSpaceOnUse">
<stop stop-color="#B58246"/>
<stop offset="0.0001" stop-color="#D19A5A"/>
<stop offset="1" stop-color="#8F6534"/>
</linearGradient>
</defs>
</svg>
