<svg width="839" height="764" viewBox="0 0 839 764" fill="none" xmlns="http://www.w3.org/2000/svg">
<path d="M694.413 532.051C630.048 657.346 674.353 797.973 473.089 694.582C296.172 603.697 47.9071 358.293 112.273 232.998C176.638 107.704 528.039 152.341 704.957 243.226C915.441 351.354 758.778 406.757 694.413 532.051Z" fill="#DFEBF5"/>
<circle cx="169.432" cy="226.85" r="6.03648" fill="#E4F3FF"/>
<circle cx="162.847" cy="247.703" r="6.03648" fill="#E4F3FF"/>
<circle cx="273.699" cy="219.167" r="6.03648" fill="#E4F3FF"/>
<path d="M208.944 241.667C202.158 246.486 192.986 244.098 170.35 212.22C147.714 180.342 141.236 160.329 148.022 155.51C154.809 150.691 164.906 168.082 187.542 199.96C210.178 231.838 215.73 236.848 208.944 241.667Z" fill="#FFFFF7"/>
<path d="M259.293 253.754C252.507 258.573 243.335 256.185 220.699 224.307C198.063 192.429 191.585 172.415 198.372 167.597C205.158 162.778 215.255 180.169 237.891 212.047C260.527 243.925 266.079 248.935 259.293 253.754Z" fill="#FFFFF7"/>
<path d="M261.634 207.643C254.848 212.462 245.676 210.074 223.04 178.196C200.404 146.318 193.926 126.305 200.712 121.486C207.499 116.667 217.596 134.058 240.232 165.936C262.868 197.814 268.42 202.824 261.634 207.643Z" fill="#FFFFF7"/>
<circle cx="279.186" cy="189.533" r="6.03648" fill="#E4F3FF"/>
<circle cx="294.552" cy="216.972" r="9.3291" fill="#E4F3FF"/>
<path d="M626.504 375.572C614.002 382.936 624.086 364.798 619.079 356.374C614.072 347.95 586.593 338.975 599.094 331.611C611.596 324.247 655.283 323.729 662.136 331.611C662.136 344.193 639.005 368.208 626.504 375.572Z" fill="#1D628B"/>
<path d="M653.913 432.872C640.416 438.218 643.913 416.045 640.278 406.951C636.643 397.856 616.486 386.413 629.982 381.067C643.479 375.721 689.389 377.429 693.024 386.524C693.294 397.317 667.41 427.526 653.913 432.872Z" fill="#1D628B"/>
<path d="M696.397 492.901C691.793 506.616 683.918 481.693 674.592 478.59C665.267 475.487 654.859 473.468 659.463 459.753C664.068 446.038 680.75 429.369 690.075 432.471C698.533 439.229 701.002 479.186 696.397 492.901Z" fill="#1D628B"/>
<path d="M762.18 536.558C763.55 554.072 745.467 530.332 736.141 527.229C726.815 524.126 704.005 519.783 708.609 506.068C713.214 492.354 743.261 474.791 752.587 477.893C760.809 486.079 764.921 521.551 762.18 536.558Z" fill="#1D628B"/>
<path d="M527.83 211.484C526.72 220.967 519.902 212.376 512.217 211.484C504.531 210.593 496.207 210.537 497.317 201.054C498.363 192.116 502.63 182.96 510.002 178.511C510.794 178.033 511.801 178.245 512.382 178.964C519.224 187.442 528.888 202.45 527.83 211.484Z" fill="#1D628B"/>
<path d="M560.722 239.144C556.146 249.253 553.981 240.92 546.803 238.043C539.676 235.185 528.518 233.023 531.868 224.323C531.915 224.203 531.941 224.07 531.946 223.942C532.236 216.117 549.942 209.555 559.724 205.458C560.263 205.232 560.881 205.51 561.058 206.065C564.83 217.927 564.718 228.535 560.722 239.144Z" fill="#1D628B"/>
<path d="M586.76 281.436C579.306 290.006 579.884 275.605 573.301 269.931C566.719 264.256 553.267 258.627 560.722 250.058C568.176 241.488 590.872 236.415 600.465 240.508C603.206 251.422 594.215 272.867 586.76 281.436Z" fill="#1D628B"/>
<path d="M608.688 323.729C601.233 332.299 598.759 324.941 592.177 319.267C585.594 313.592 575.194 307.742 582.649 299.172C590.103 290.603 614.169 286.894 622.392 289.622C625.133 300.537 616.142 315.16 608.688 323.729Z" fill="#1D628B"/>
<rect width="77.8912" height="179.99" rx="38.9456" transform="matrix(-0.587459 0.807775 -0.812231 -0.585385 416.266 385.984)" fill="#4589B0"/>
<ellipse rx="13.6479" ry="13.6996" transform="matrix(0.287467 0.95779 -0.9585 0.285092 241.012 350.824)" fill="#4589B0"/>
<ellipse rx="12.2831" ry="12.3296" transform="matrix(0.287467 0.95779 -0.9585 0.285092 243.717 328.273)" fill="#4589B0"/>
<ellipse rx="10.9183" ry="10.9597" transform="matrix(0.287467 0.95779 -0.9585 0.285092 254.139 306.819)" fill="#4589B0"/>
<ellipse rx="9.55355" ry="9.58971" transform="matrix(0.287467 0.95779 -0.9585 0.285092 271.176 294.146)" fill="#4589B0"/>
<path d="M662.136 447.879C662.136 550.201 578.626 603.408 490.828 603.408C403.029 603.408 318.149 550.352 318.149 447.879C318.149 402.863 345.785 344.741 371.597 293.715C404.543 228.588 418.301 191.394 467.53 191.394C516.758 191.394 561.045 228.588 593.612 293.715C619.128 344.741 662.136 402.863 662.136 447.879Z" fill="#73B1D6"/>
<path d="M364.745 618.415L331.854 499.722L405.859 550.201L449.714 558.386L488.087 544.744L453.825 618.415C427.03 632.183 395.368 632.761 368.088 619.981L364.745 618.415Z" fill="#73B1D6"/>
<path d="M600.466 651.158L633.357 532.465L559.352 582.944L515.497 591.129L477.124 577.487L511.386 651.158C538.181 664.926 569.843 665.504 597.123 652.724L600.466 651.158Z" fill="#73B1D6"/>
<g filter="url(#filter0_f_217_198)">
<path d="M479.48 603.408H486.717C488.705 603.408 490.079 601.421 489.379 599.56L487.683 595.059C487.102 593.515 485.625 592.494 483.976 592.494H471.642H464.644C463.83 592.494 463.019 592.394 462.229 592.198L452.455 589.765L430.528 584.308C431.919 584.654 433.258 585.184 434.509 585.883L461.145 600.772C462.636 601.606 464.316 602.044 466.024 602.044H470.656C471.311 602.044 471.965 602.108 472.608 602.236L477.527 603.215C478.17 603.343 478.824 603.408 479.48 603.408Z" fill="#1D628B" fill-opacity="0.28"/>
</g>
<path d="M418.193 446.515C418.193 496.998 441.616 537.922 411.341 537.922C381.066 537.922 332.202 483.355 332.202 432.872C332.202 382.389 373.191 326.458 403.466 326.458C433.742 326.458 418.193 396.032 418.193 446.515Z" fill="#4589B0" fill-opacity="0.64"/>
<path d="M395.038 304.119C391.721 310.042 384.209 312.167 378.259 308.864C372.309 305.562 370.175 298.084 373.492 292.161C376.81 286.238 383.464 288.859 389.413 292.161C395.363 295.463 398.355 298.196 395.038 304.119Z" fill="#1D628B"/>
<path d="M501.934 304.119C498.617 310.042 491.105 312.167 485.155 308.864C479.205 305.562 479.288 301.002 482.605 295.079C485.922 289.156 491.218 284.113 497.168 287.416C503.117 290.718 505.251 298.196 501.934 304.119Z" fill="#1D628B"/>
<path fill-rule="evenodd" clip-rule="evenodd" d="M459.738 303.265H409.338C410.752 316.147 421.495 326.163 434.538 326.163C447.581 326.163 458.324 316.147 459.738 303.265ZM435.893 274.615H433.183C433.632 274.591 434.084 274.579 434.538 274.579C434.993 274.579 435.444 274.591 435.893 274.615Z" fill="#444444"/>
<path fill-rule="evenodd" clip-rule="evenodd" d="M414.082 303.265C414.082 303.28 414.082 303.295 414.082 303.31C414.082 309.313 418.285 314.179 421.087 314.179C422.669 314.179 422.911 312.793 423.327 310.411C423.572 309.005 423.878 307.253 424.555 305.234C424.772 304.589 424.956 303.932 425.088 303.265H414.082Z" fill="#D9D9D9"/>
<path fill-rule="evenodd" clip-rule="evenodd" d="M455.596 303.265C455.596 303.28 455.596 303.295 455.596 303.31C455.596 309.313 451.397 314.179 448.598 314.179C447.017 314.179 446.776 312.793 446.36 310.411C446.115 309.005 445.81 307.252 445.132 305.232C444.916 304.588 444.732 303.931 444.601 303.265H455.596Z" fill="#D9D9D9"/>
<path fill-rule="evenodd" clip-rule="evenodd" d="M397.638 407.304C398.144 409.26 398.341 411.331 398.176 413.458C397.373 423.835 388.272 431.599 377.847 430.8C374.134 430.515 370.753 429.182 367.976 427.114C367.857 428.076 367.759 429.045 367.684 430.02C365.028 464.345 390.826 494.314 425.306 496.959C459.786 499.603 489.891 473.921 492.548 439.596C495.204 405.271 469.405 375.302 434.925 372.658C426.106 371.981 417.574 373.158 409.713 375.858C413.106 379.566 415.014 384.605 414.596 390C413.881 399.24 406.587 406.409 397.638 407.304Z" fill="url(#paint0_linear_217_198)"/>
<path d="M372.037 449.256C374.966 449.48 379.298 448.6 381.431 451.874C381.857 452.527 381.952 453.329 381.867 454.104C381.491 457.553 380.418 462.984 377.564 462.765C374.357 462.519 372.795 458.341 373.042 455.148C373.289 451.955 368.83 449.01 372.037 449.256Z" fill="#A57640"/>
<path d="M400.795 464.546C402.633 463.735 408.215 464.136 410.009 468.161C411.802 472.186 409.444 479.523 407.606 480.335C405.768 481.147 406.017 477.102 404.223 473.077C402.43 469.052 398.957 465.358 400.795 464.546Z" fill="#A57640"/>
<path d="M407.61 442.533C409.213 443.741 409.398 446.745 408.67 447.703C407.943 448.661 404.768 446.525 403.164 445.317C401.561 444.11 398.841 443.601 399.569 442.643C400.296 441.686 406.006 441.325 407.61 442.533Z" fill="#A57640"/>
<path d="M435.197 444.648C436.59 443.849 441.844 444.919 443.851 448.387C445.858 451.856 444.407 456.08 443.013 456.879C441.619 457.679 440.811 454.75 438.804 451.282C436.797 447.813 433.803 445.448 435.197 444.648Z" fill="#9C6F3A"/>
<path d="M424.422 414.016C425.816 413.217 431.013 415.009 433.021 418.478C435.028 421.947 433.588 428.353 432.195 429.152C430.801 429.951 429.981 424.841 427.973 421.372C425.966 417.904 423.028 414.816 424.422 414.016Z" fill="#9C6F3A"/>
<path d="M455.905 412.963C457.299 412.164 462.678 409.274 464.685 412.742C466.692 416.211 462.894 424.784 461.501 425.584C460.107 426.383 462.482 420.064 460.474 416.595C458.467 413.126 454.511 413.762 455.905 412.963Z" fill="#916736"/>
<path d="M432.747 381.941C434.14 381.142 438.054 380.655 440.061 384.123C442.068 387.592 439.109 392.428 437.715 393.227C436.322 394.026 437.021 390.486 435.014 387.018C433.006 383.549 431.353 382.741 432.747 381.941Z" fill="#906736"/>
<path d="M468.534 447.932C469.928 447.133 475.964 445.187 477.972 448.656C479.979 452.124 477.019 459.308 475.625 460.107C474.231 460.907 475.768 455.977 473.761 452.508C471.754 449.04 467.14 448.731 468.534 447.932Z" fill="#926837"/>
<path d="M449.767 482.841C451.161 482.042 458.761 478.762 460.768 482.231C462.775 485.7 459.983 490.715 458.589 491.514C457.195 492.314 458.677 488.107 456.669 484.638C454.662 481.17 448.373 483.641 449.767 482.841Z" fill="#9C6F3A"/>
<path d="M420.052 414.513C421.415 413.441 423.279 413.129 424.755 414.038C428.782 416.519 433.189 423.401 432.909 427.026C432.569 431.416 426.54 434.534 422.13 434.196C417.72 433.857 414.42 430.024 414.76 425.634C415.046 421.931 416.439 417.355 420.052 414.513Z" fill="#5C4529"/>
<path d="M470.042 447.321C474.051 447.628 478.447 451.947 478.138 455.938C477.829 459.929 472.709 464.972 468.699 464.665C464.69 464.357 461.69 460.873 461.999 456.881C462.308 452.89 466.032 447.013 470.042 447.321Z" fill="#5C4529"/>
<path d="M458.151 412.241C461.358 412.487 464.372 416.776 464.125 419.969C463.878 423.162 460.91 427.719 457.703 427.473C454.495 427.227 451.649 420.77 451.896 417.577C452.143 414.384 454.944 411.995 458.151 412.241Z" fill="#5C4529"/>
<path d="M433.1 381.968C435.906 382.184 439.551 388.376 439.334 391.17C439.118 393.964 434.947 394.584 432.14 394.368C429.334 394.153 430.575 391.128 430.791 388.334C431.007 385.54 430.293 381.753 433.1 381.968Z" fill="#5C4529"/>
<path d="M434.455 444.595C437.768 443.143 442.356 449.867 443.814 453.165C445.273 456.462 442.81 459.941 439.498 461.392C436.185 462.844 431.065 460.313 429.607 457.016C428.148 453.719 431.143 446.047 434.455 444.595Z" fill="#5C4529"/>
<path d="M458.602 378.108C462.611 378.416 473.373 385.404 473.064 389.395C472.755 393.386 467.97 394.093 463.961 393.786C459.952 393.478 456.952 389.993 457.261 386.002C457.57 382.011 454.593 377.801 458.602 378.108Z" fill="#5C4529"/>
<path d="M490.763 415.469C494.022 417.814 495.63 426.956 493.275 430.201C490.919 433.446 486.965 431.471 483.706 429.126C480.446 426.782 479.714 422.251 482.069 419.006C484.424 415.762 487.504 413.124 490.763 415.469Z" fill="#5C4529"/>
<path d="M373.489 449.367C377.498 449.674 380.498 453.159 380.189 457.15C379.88 461.142 378.558 464.295 374.548 463.987C370.539 463.68 368.545 456.637 368.854 452.646C369.162 448.655 369.48 449.059 373.489 449.367Z" fill="#5C4529"/>
<path d="M452.783 481.619C456.792 481.926 461.244 485.522 460.935 489.513C460.626 493.505 452.825 495.434 448.816 495.127C444.807 494.819 444.655 492.28 444.964 488.289C445.273 484.297 448.773 481.311 452.783 481.619Z" fill="#5C4529"/>
<path d="M400.795 464.546C404.804 464.854 409.87 469.951 409.561 473.942C409.252 477.933 408.599 481.865 404.59 481.557C400.581 481.25 394.733 476.82 395.042 472.829C395.351 468.837 396.785 464.239 400.795 464.546Z" fill="#5C4529"/>
<path d="M402.528 442.143C405.335 442.358 408.886 444.909 408.67 447.703C408.454 450.497 404.72 450.308 401.913 450.093C399.106 449.877 397.007 447.438 397.223 444.644C397.439 441.85 399.722 441.928 402.528 442.143Z" fill="#5C4529"/>
<rect width="77.8072" height="180.184" rx="38.9036" transform="matrix(0.609954 0.792437 -0.795091 0.60649 565.503 319.636)" fill="#4589B0"/>
<ellipse cx="441.491" cy="415.137" rx="13.7046" ry="13.6429" fill="#4589B0"/>
<ellipse cx="440.12" cy="438.33" rx="12.3342" ry="12.2786" fill="#4589B0"/>
<ellipse cx="446.973" cy="458.794" rx="10.9637" ry="10.9143" fill="#4589B0"/>
<ellipse cx="462.048" cy="471.072" rx="9.59325" ry="9.55" fill="#4589B0"/>
<path d="M815.996 541.278C747.663 577.59 649.802 585.672 615.541 543.379C611.674 539.947 618.294 539.804 618.772 536.886C619.039 535.252 617.212 534.109 615.769 533.289C560.962 502.144 620.53 440.291 641.721 414.826C663.197 389.019 649.802 446.657 696.345 485.04C749.463 528.845 772.756 526.449 815.996 541.278Z" fill="#73B1D6"/>
<path d="M443.457 212.481C448.718 218.842 445.306 220.629 440.027 224.956C434.747 229.284 429.6 234.514 424.339 228.153C419.077 221.792 417.055 207.894 422.334 203.567C429.157 200.735 438.195 206.121 443.457 212.481Z" fill="#1D628B"/>
<path d="M486.077 196.698C486.537 197.689 487.102 198.631 487.703 199.543C492.158 206.307 482.856 206.732 476.033 209.28C468.982 211.914 459.811 215.74 458.114 207.492C458.018 207.027 457.991 206.552 457.992 206.078C457.993 197.008 458.064 184.247 460.827 178.16C461.925 175.743 464.876 175.435 467.197 176.74C474.374 180.772 482.674 189.357 486.077 196.698Z" fill="#1D628B"/>
<path d="M372.968 614.322C372.968 618.843 369.286 622.508 364.745 622.508C360.204 622.508 352.411 624.3 352.411 619.779C352.411 615.258 360.204 606.136 364.745 606.136C369.286 606.136 372.968 609.801 372.968 614.322Z" fill="#1D628B"/>
<path d="M522.348 648.157C522.348 653.28 518.176 657.434 513.029 657.434C507.882 657.434 499.051 659.465 499.051 654.341C499.051 649.218 507.882 638.879 513.029 638.879C518.176 638.879 522.348 643.033 522.348 648.157Z" fill="#1D628B"/>
<path d="M541.535 657.434C541.535 662.557 537.363 666.711 532.216 666.711C527.069 666.711 518.237 668.742 518.237 663.618C518.237 658.495 527.069 648.156 532.216 648.156C537.363 648.156 541.535 652.31 541.535 657.434Z" fill="#1D628B"/>
<path d="M567.3 657.434C567.3 662.557 563.127 666.711 557.981 666.711C552.834 666.711 544.002 668.742 544.002 663.618C544.002 658.495 552.834 648.157 557.981 648.157C563.127 648.157 567.3 652.31 567.3 657.434Z" fill="#1D628B"/>
<path d="M388.043 622.508C388.043 627.029 384.361 630.694 379.82 630.694C375.279 630.694 367.486 632.486 367.486 627.965C367.486 623.444 375.279 614.322 379.82 614.322C384.361 614.322 388.043 617.987 388.043 622.508Z" fill="#1D628B"/>
<path d="M408.6 626.601C408.6 631.122 400.807 636.151 396.266 636.151C391.725 636.151 383.932 637.943 383.932 633.422C383.932 628.901 391.725 619.779 396.266 619.779C400.807 619.779 408.6 622.08 408.6 626.601Z" fill="#1D628B"/>
<path d="M532.749 221.408C536.528 227.936 538.65 238.486 532.749 241.872C526.847 245.259 516.535 238.85 512.755 232.322C508.976 225.794 502.742 217.973 508.644 214.587C514.546 211.2 528.969 214.88 532.749 221.408Z" fill="#B1D0E3"/>
<path d="M659.76 451.046C661.116 456.975 660.287 465.603 655.029 466.795C649.772 467.988 643.434 460.585 642.077 454.656C640.721 448.727 637.802 441.214 643.06 440.022C648.317 438.829 658.403 445.117 659.76 451.046Z" fill="#B1D0E3"/>
<path d="M511.815 263.229C510.915 266.63 507.693 268.733 504.618 267.927C501.544 267.12 499.781 263.71 500.681 260.309C501.581 256.908 505.57 251.98 508.644 252.786C511.719 253.593 512.715 259.828 511.815 263.229Z" fill="#B1D0E3"/>
<path d="M555.424 256.588C555.85 262.688 551.161 272.869 545.646 273.251C540.132 273.633 539.22 265.708 538.794 259.608C538.368 253.508 540.132 250.44 545.646 250.058C551.161 249.676 554.998 250.488 555.424 256.588Z" fill="#B1D0E3"/>
<path d="M622.392 441.058C622.392 447.839 622.352 454.701 615.54 454.701C608.728 454.701 597.724 447.839 597.724 441.058C597.724 434.277 599.135 426.051 605.947 426.051C612.759 426.051 622.392 434.277 622.392 441.058Z" fill="#B1D0E3"/>
<ellipse rx="23.0494" ry="22.9875" transform="matrix(0.892243 0.451555 -0.454791 0.890598 416.365 271.518)" fill="#F5F5F5"/>
<path fill-rule="evenodd" clip-rule="evenodd" d="M407.009 250.182C397.245 254.374 391.249 264.576 393.111 275.165C394.229 281.521 397.961 286.787 403.061 290.121C405.043 290.473 407.103 290.491 409.178 290.13C419.409 288.347 426.137 277.998 424.205 267.014C422.581 257.778 415.351 251.035 407.009 250.182Z" fill="#444444"/>
<path d="M409.164 260.681C408.272 262.309 406.222 262.909 404.587 262.02C402.951 261.132 402.348 259.092 403.241 257.463C404.133 255.835 406.183 255.235 407.818 256.124C409.454 257.012 410.057 259.052 409.164 260.681Z" fill="white"/>
<ellipse rx="1.68519" ry="1.68102" transform="matrix(0.878742 0.477296 -0.480615 0.876932 411.84 266.356)" fill="white"/>
<ellipse rx="23.0494" ry="22.9875" transform="matrix(0.892243 0.451555 -0.454791 0.890598 470.037 275.826)" fill="#F5F5F5"/>
<path fill-rule="evenodd" clip-rule="evenodd" d="M460.68 254.491C450.916 258.683 444.92 268.884 446.783 279.474C447.901 285.83 451.633 291.096 456.733 294.43C458.714 294.782 460.774 294.8 462.849 294.439C473.08 292.656 479.808 282.306 477.876 271.323C476.252 262.087 469.022 255.344 460.68 254.491Z" fill="#444444"/>
<path d="M462.836 264.989C461.943 266.618 459.894 267.217 458.258 266.329C456.622 265.441 456.02 263.4 456.912 261.772C457.805 260.144 459.854 259.544 461.49 260.432C463.125 261.321 463.728 263.361 462.836 264.989Z" fill="white"/>
<ellipse rx="1.68519" ry="1.68102" transform="matrix(0.878742 0.477296 -0.480615 0.876932 465.512 270.664)" fill="white"/>
<defs>
<filter id="filter0_f_217_198" x="430.028" y="583.808" width="60.0364" height="20.1001" filterUnits="userSpaceOnUse" color-interpolation-filters="sRGB">
<feFlood flood-opacity="0" result="BackgroundImageFix"/>
<feBlend mode="normal" in="SourceGraphic" in2="BackgroundImageFix" result="shape"/>
<feGaussianBlur stdDeviation="0.25" result="effect1_foregroundBlur_217_198"/>
</filter>
<linearGradient id="paint0_linear_217_198" x1="373.989" y1="471.214" x2="499.964" y2="406.28" gradientUnits="userSpaceOnUse">
<stop stop-color="#B58246"/>
<stop offset="0.0001" stop-color="#D19A5A"/>
<stop offset="1" stop-color="#8F6534"/>
</linearGradient>
</defs>
</svg>
