<svg width="82" height="82" viewBox="0 0 82 82" fill="none" xmlns="http://www.w3.org/2000/svg">
<path d="M66.4277 47.8333C66.4277 63.7678 56.5473 63.7778 40.6129 63.7778C24.6785 63.7778 15.9445 63.7678 15.9445 47.8333C15.9445 31.8989 24.6859 18.2222 40.6204 18.2222C56.5548 18.2222 66.4277 31.8989 66.4277 47.8333Z" fill="#73B1D6"/>
<path d="M30.1921 44.796C28.7305 47.1609 25.6285 47.8932 23.2636 46.4316C20.8986 44.9701 20.1663 41.868 21.6279 39.5031C23.0895 37.1382 25.4354 37.6293 27.8003 39.0909C30.1653 40.5525 31.6537 42.4311 30.1921 44.796Z" fill="#1D628B"/>
<path d="M59.2995 38.3928C61.1292 40.4863 60.9153 43.6667 58.8218 45.4963C56.7282 47.326 53.5479 47.1121 51.7182 45.0185C49.8886 42.925 51.049 40.8277 53.1425 38.998C55.2361 37.1684 57.4699 36.2992 59.2995 38.3928Z" fill="#1D628B"/>
<path d="M37.9364 36.4444C37.9364 40.2184 34.877 43.2778 31.103 43.2778C27.3291 43.2778 24.2697 40.2184 24.2697 36.4444C24.2697 32.6705 27.3291 29.6111 31.103 29.6111C34.877 29.6111 37.9364 32.6705 37.9364 36.4444Z" fill="#F5F5F5"/>
<path d="M37.963 36.4445C37.963 38.9604 35.9234 41 33.4074 41C30.8915 41 28.8519 38.9604 28.8519 36.4445C28.8519 33.9285 30.8915 31.8889 33.4074 31.8889C35.9234 31.8889 37.963 33.9285 37.963 36.4445Z" fill="#444444"/>
<circle cx="50.0845" cy="36.4444" r="6.83333" fill="#F5F5F5"/>
<path d="M52.3889 36.4445C52.3889 38.9604 50.3493 41 47.8333 41C45.3174 41 43.2778 38.9604 43.2778 36.4445C43.2778 33.9285 45.3174 31.8889 47.8333 31.8889C50.3493 31.8889 52.3889 33.9285 52.3889 36.4445Z" fill="#444444"/>
<path fill-rule="evenodd" clip-rule="evenodd" d="M30.0237 46C30.008 46.1882 30 46.3781 30 46.5694C30 51.2869 34.844 55.1111 40.8194 55.1111C46.7949 55.1111 51.6389 51.2869 51.6389 46.5694C51.6389 46.3781 51.6309 46.1882 51.6152 46H30.0237Z" fill="#444444"/>
<path fill-rule="evenodd" clip-rule="evenodd" d="M50.5434 46C50.5435 46.0063 50.5435 46.0127 50.5435 46.0191C50.5435 48.5435 48.8088 50.59 47.6523 50.59C46.9992 50.59 46.8994 50.0069 46.7279 49.0052C46.6742 48.6913 46.6134 48.3363 46.5263 47.9453C46.4529 47.6155 46.3553 47.2812 46.2572 46.9452C46.1654 46.6308 46.0732 46.315 46 46H50.5434Z" fill="#D9D9D9"/>
<path fill-rule="evenodd" clip-rule="evenodd" d="M31 46C31 46.0063 31 46.0126 31 46.0189C31 48.5244 32.7445 50.5556 33.9075 50.5556C34.5643 50.5556 34.6647 49.9768 34.8372 48.9827C34.8895 48.681 34.9485 48.341 35.0317 47.9674C35.1085 47.6223 35.2168 47.2705 35.3256 46.9166C35.4195 46.6116 35.5138 46.305 35.5888 46H31Z" fill="#D9D9D9"/>
<circle cx="32.6482" cy="33.4074" r="0.759259" fill="white"/>
<circle cx="48.5926" cy="33.4074" r="0.759259" fill="white"/>
<circle cx="34.5463" cy="34.5463" r="0.37963" fill="white"/>
<circle cx="46.6945" cy="34.5463" r="0.37963" fill="white"/>
<path d="M47.0741 23.1574C47.0741 27.2695 43.4297 25.8148 41.3796 25.8148C39.3296 25.8148 35.6852 27.2695 35.6852 23.1574C35.6852 19.0453 38.3426 14.0463 41.3796 9.87036C44.4167 14.4259 47.0741 19.0453 47.0741 23.1574Z" fill="#1D628B"/>
<path d="M44.7963 28.0926C44.7963 31.4472 43.0569 31.5092 41.3796 31.5092C39.7023 31.5092 37.963 31.4472 37.963 28.0926C37.963 24.738 39.4815 21.6389 41.3796 19.7407C43.2778 21.6389 44.7963 24.738 44.7963 28.0926Z" fill="#2574A4"/>
<circle cx="41" cy="41" r="40.5" stroke="#1D628B"/>
<path d="M53.5274 26.0605C53.2499 26.3748 52.2585 26.3698 51.6297 25.8148C51.001 25.2598 50.9726 24.231 51.2501 23.9166C51.5276 23.6023 53.2787 24.1209 53.9074 24.6759C54.5362 25.2309 53.8049 25.7461 53.5274 26.0605Z" fill="#B1D0E3"/>
<path d="M56.9445 28.0926C56.9445 28.7216 57.1938 29.6111 56.5648 29.6111C55.9358 29.6111 54.6667 28.7216 54.6667 28.0926C54.6667 27.4636 55.5562 26.9537 56.1852 26.9537C56.8142 26.9537 56.9445 27.4636 56.9445 28.0926Z" fill="#B1D0E3"/>
<path d="M53.9074 28.4722C53.9074 29.1012 53.7771 29.6111 53.1482 29.6111C52.5192 29.6111 51.6296 29.1012 51.6296 28.4722C51.6296 27.8433 52.1395 26.5741 52.7685 26.5741C53.3975 26.5741 53.9074 27.8433 53.9074 28.4722Z" fill="#B1D0E3"/>
<path d="M22.5478 33.4324C22.3086 34.0141 21.9942 34.4362 21.4125 34.197C20.8308 33.9577 20.202 33.1478 20.4412 32.5661C20.6804 31.9844 21.6347 31.0045 22.2164 31.2438C22.7982 31.483 22.7871 32.8507 22.5478 33.4324Z" fill="#B1D0E3"/>
<path d="M38.7222 43.6574C38.7222 43.8671 38.5522 44.037 38.3426 44.037C38.1329 44.037 37.963 43.8671 37.963 43.6574C37.963 43.4477 38.1329 43.2778 38.3426 43.2778C38.5522 43.2778 38.7222 43.4477 38.7222 43.6574Z" fill="#1B5374"/>
<path d="M38.7222 43.6574C38.7222 43.8671 38.5522 44.037 38.3426 44.037C38.1329 44.037 37.963 43.8671 37.963 43.6574C37.963 43.4477 38.1329 43.2778 38.3426 43.2778C38.5522 43.2778 38.7222 43.4477 38.7222 43.6574Z" fill="#1B5374"/>
<path d="M43.2778 43.6574C43.2778 43.8671 43.1078 44.037 42.8981 44.037C42.6885 44.037 42.5185 43.8671 42.5185 43.6574C42.5185 43.4477 42.6885 43.2778 42.8981 43.2778C43.1078 43.2778 43.2778 43.4477 43.2778 43.6574Z" fill="#1B5374"/>
<path d="M43.2778 43.6574C43.2778 43.8671 43.1078 44.037 42.8981 44.037C42.6885 44.037 42.5185 43.8671 42.5185 43.6574C42.5185 43.4477 42.6885 43.2778 42.8981 43.2778C43.1078 43.2778 43.2778 43.4477 43.2778 43.6574Z" fill="#1B5374"/>
<path d="M25.0556 31.1296C25.0556 31.5489 24.7156 31.8889 24.2963 31.8889C23.877 31.8889 23.537 31.9286 23.537 31.5092C23.537 31.0899 24.2566 29.9907 24.6759 29.9907C25.0953 29.9907 25.0556 30.7103 25.0556 31.1296Z" fill="#B1D0E3"/>
<path d="M24.6759 28.8518C24.6759 29.2712 23.5767 29.6111 23.1574 29.6111C22.7381 29.6111 22.3981 29.2712 22.3981 28.8518C22.3981 28.4325 23.4973 28.0926 23.9167 28.0926C24.336 28.0926 24.6759 28.4325 24.6759 28.8518Z" fill="#B1D0E3"/>
</svg>
